<?xml version="1.0" encoding="UTF-8"?>
<svg id="Layer_2" data-name="Layer 2" xmlns="http://www.w3.org/2000/svg" viewBox="0 0 236.3 139.44">
  <defs>
    <style>
      .cls-1 {
        fill: #3d82ff;
      }

      .cls-2 {
        fill: #fff;
      }

      .cls-3 {
        fill: #00b7ff;
      }

      .cls-4 {
        stroke: #00b7ff;
      }

      .cls-4, .cls-5 {
        fill: none;
        stroke-miterlimit: 10;
        stroke-width: .5px;
      }

      .cls-5 {
        stroke: #3d82ff;
      }
    </style>
  </defs>
  <g id="Layer_1-2" data-name="Layer 1">
    <g>
      <g id="offset">
        <path class="cls-4" d="M37.53,97.01C16.28,97.01.25,80.52.25,58.65S16.51,19.57,38.07,19.57c7.52,0,15.07,1.95,21.24,5.5,5.28,3.03,8.54,8.66,8.54,14.74v10.74c0,2.9-.72,5.62-2,8.01,1.28,2.39,2,5.11,2,8.01v9.18c0,5.1-2.29,9.93-6.24,13.16-6.29,5.15-15.07,8.1-24.08,8.1Z"/>
        <path class="cls-4" d="M51.59,80.24c-9.39,0-17-7.61-17-17v-2.22c0-4.3,1.6-8.25,4.26-11.26v-16.78c-3.05-3.16-4.8-7.38-4.8-11.81v-2.1c0-7.25,4.6-13.71,11.46-16.07,2.32-.8,7.96-2.31,12.74-2.31,11.62,0,20.06,8.66,20.06,20.6v28.51c2.65,3,4.26,6.94,4.26,11.21v2.22c0,9.39-7.61,17-17,17h-13.98Z"/>
        <path class="cls-4" d="M78.59,77.65c-17.11,0-30.02-13.45-30.02-31.28s14.06-33.32,32-33.32,30.08,13.32,30.08,30.98c0,18.85-14.08,33.62-32.06,33.62Z"/>
        <path class="cls-4" d="M108.88,84.61c-12.34,0-24.8-8.28-24.8-26.78v-5.46c-3.06-3.16-4.8-7.39-4.8-11.82v-2.1c0-7.25,4.6-13.7,11.45-16.07,2.31-.8,7.96-2.31,12.75-2.31,2.86,0,5.53.53,7.93,1.49,2.77-.73,6.6-1.49,10.01-1.49,11.62,0,20.06,8.66,20.06,20.6v12.03c3.07,3.04,4.87,7.14,5.03,11.47l.06,1.68c.26,7.08-3.91,13.58-10.46,16.31-2.53,1.05-6.08,2.27-11.09,2.27-2.82,0-5.37-.37-7.67-1.04-2.74.81-5.57,1.22-8.47,1.22Z"/>
        <path class="cls-4" d="M139.97,80.69c-16.09,0-28.22-13.58-28.22-31.58,0-12.37,6.01-22.74,15.36-28.4v-2.08c0-7.25,4.6-13.71,11.46-16.07,2.32-.8,7.96-2.31,12.74-2.31,11.62,0,20.06,8.66,20.06,20.6v27.87c3.07,3.04,4.88,7.14,5.03,11.48l.06,1.68c.25,7.08-3.91,13.57-10.45,16.3-2.53,1.05-6.08,2.27-11.1,2.27-2.64,0-5.02-.32-7.16-.88-2.92.85-5.58,1.12-7.78,1.12Z"/>
        <path class="cls-4" d="M74.42,126.18c-.31,0-.63,0-.94,0-21.73-.42-36.93-16.07-36.93-38.06s16.52-39.38,38.42-39.38c7.78,0,15.98,2.08,21.95,5.56,5.22,3.05,8.43,8.64,8.43,14.68v9.12c2.33,2.91,3.72,6.6,3.72,10.62v2.46c0,4-1.39,7.7-3.72,10.61v3.96c0,5.83-2.99,11.25-7.91,14.37-5.91,3.74-14.73,6.06-23.02,6.06Z"/>
        <path class="cls-4" d="M113.74,128.04c-2.68,0-5.2-.36-7.52-1.03-2.31.63-4.71.97-7.12.97-13.7,0-24.44-10.6-24.44-24.14,0-1.99.29-6,2.27-10.31-.97-2.16-1.49-4.53-1.49-6.97v-2.76c0-6.36,3.54-12.18,9.19-15.1,5.86-3.03,13.29-4.84,19.87-4.84,15.37,0,25.7,10.79,25.7,26.84v5.56c3.25,3.18,5.1,7.56,5.1,12.14v1.68c0,6.86-4.13,13.05-10.46,15.69-2.53,1.05-6.08,2.27-11.1,2.27Z"/>
        <path class="cls-4" d="M118.51,123.44c-6.08,0-11.69-3.24-14.73-8.51l-.9-1.56c-3.2-5.54-3.01-12.42.48-17.78l.11-.17c-2.29-3.53-3.21-7.79-2.53-11.97l1.38-8.58c1.33-8.24,8.44-14.3,16.78-14.3h20.82c5.94,0,11.45,3.1,14.53,8.17l1.02,1.68c3.22,5.3,3.29,11.91.24,17.25,2.29,3.46,3.25,7.64,2.67,11.77l-1.32,9.36c-1.18,8.39-8.36,14.62-16.83,14.62h-21.72Z"/>
        <path class="cls-4" d="M142.97,128.04c-9.39,0-17-7.61-17-17v-2.22c0-4.3,1.6-8.25,4.26-11.26v-.93c-3.06-3.16-4.8-7.39-4.8-11.82v-2.1c0-3.85,1.3-7.48,3.54-10.38v-.06c0-11.69,9.15-20.84,20.84-20.84s20.84,9.15,20.84,20.84c0,2.77-.51,5.4-1.45,7.79.32,1.55.49,3.17.49,4.87v12.67c2.65,3,4.26,6.94,4.26,11.21v2.22c0,9.39-7.61,17-17,17h-13.98Z"/>
        <path class="cls-4" d="M175.43,123.48c-.67,0-1.33-.04-1.98-.11-.65.08-1.31.11-1.98.11h-13.98c-9.39,0-17-7.61-17-17v-2.22c0-4.3,1.6-8.25,4.26-11.26v-.93c-3.06-3.16-4.8-7.39-4.8-11.82v-2.1c0-7.25,4.6-13.7,11.45-16.07,2.31-.8,7.96-2.31,12.75-2.31,2.15,0,4.2.3,6.1.86,2.31-.57,4.68-.86,7.1-.86,12.34,0,24.8,8.28,24.8,26.78v6.49c2.65,3,4.26,6.94,4.26,11.21v2.22c0,9.39-7.61,17-17,17h-13.98Z"/>
        <path class="cls-4" d="M200.57,139.19c-7.52,0-14.21-2.19-19.37-6.33-5.89-4.73-9.27-11.68-9.27-19.07,0-4.76,1.29-8.67,3.24-11.86,0-1,.08-2.2.32-3.54-1.23-2.95-1.88-6.18-1.88-9.55,0-15.08,12.58-26.9,28.64-26.9,1.95,0,3.87.17,5.72.5,2.57-1.25,5.39-1.88,8.44-1.88,11.01,0,19.64,8.5,19.64,19.34,0,4.98-1.94,10.11-6.06,14.01-.12.51-.25,1.01-.4,1.51,2.96,3.94,4.59,8.76,4.59,13.94,0,16.45-15.08,29.84-33.62,29.84Z"/>
      </g>
      <g id="text">
        <path class="cls-3" d="M17.25,58.65c0-12.84,8.82-22.08,20.82-22.08,4.56,0,9.12,1.14,12.78,3.24v10.74h-2.1c-1.74-6.24-4.5-10.98-11.04-10.98-10.08,0-13.38,8.58-13.38,18.84,0,10.98,3.72,18.6,13.26,18.6,6.54,0,9.72-5.1,11.16-10.44h2.1v9.18c-3.3,2.7-8.34,4.26-13.32,4.26-12.36,0-20.28-9.3-20.28-21.36Z"/>
        <path class="cls-3" d="M54.23,60.66c1.2-.36,1.62-1.26,1.62-3V23.46c0-1.86-.36-2.46-2.16-2.46-.72,0-2.1.12-2.64.18v-2.1c1.74-.6,5.28-1.38,7.2-1.38,2.34,0,3.06,1.2,3.06,3.6v36.36c0,1.8.48,2.64,1.62,3,.54.18,1.26.24,2.64.36v2.22h-13.98v-2.22c.84-.06,1.98-.12,2.64-.36Z"/>
        <path class="cls-3" d="M65.57,46.37c0-9.84,6.78-16.32,15-16.32s13.08,5.76,13.08,13.98c0,8.64-5.88,16.62-15.06,16.62-7.74,0-13.02-5.64-13.02-14.28ZM87.53,45.95c0-7.32-2.4-12.42-8.52-12.42-5.64,0-7.32,4.38-7.32,10.68,0,7.26,2.28,12.96,8.4,12.96,5.1,0,7.44-4.08,7.44-11.22Z"/>
        <path class="cls-3" d="M101.08,57.83v-15c0-1.86-.36-2.46-2.16-2.46-.72,0-2.1.12-2.64.18v-2.1c1.74-.6,5.28-1.38,7.2-1.38,2.34,0,3.06,1.2,3.06,3.6v15.72c0,4.44,1.2,6.6,6,6.6,2.22,0,3.96-.48,6.48-1.32v-18.84c0-1.86-.36-2.46-2.16-2.46-.72,0-2.1.12-2.64.18v-2.1c1.74-.6,5.28-1.38,7.2-1.38,2.34,0,3.06,1.2,3.06,3.6v20.4c0,3.36,1.92,3.9,5.04,3.72l.06,1.68c-1.44.6-2.64.96-4.56.96-4.2,0-5.76-1.68-6-4.2-2.94,2.64-6.24,4.38-10.14,4.38-4.86,0-7.8-2.64-7.8-9.78Z"/>
        <path class="cls-3" d="M128.75,49.11c0-9.72,6.3-16.02,15.36-16.02,1.62,0,3.24.18,4.8.54v-10.62c0-1.86-.36-2.46-2.16-2.46-.72,0-2.1.12-2.64.18v-2.1c1.74-.6,5.28-1.38,7.2-1.38,2.34,0,3.06,1.2,3.06,3.6v36.24c0,3.36,1.92,3.9,5.04,3.72l.06,1.68c-1.44.6-2.64.96-4.56.96-4.02,0-5.58-1.5-5.94-3.84-2.94,2.76-6,4.08-9,4.08-6.18,0-11.22-5.64-11.22-14.58ZM143.15,58.95c1.98,0,3.48-.36,5.76-1.5v-19.02c-1.86-.96-4.26-1.86-7.02-1.86-5.94,0-7.98,4.32-7.98,10.68,0,7.44,2.52,11.7,9.24,11.7Z"/>
        <path class="cls-3" d="M53.55,88.12c0-13.26,9.18-22.38,21.42-22.38,4.38,0,9.78,1.14,13.38,3.24v10.74h-2.1c-1.8-6.24-4.98-10.98-12.06-10.98-9.6,0-13.56,8.58-13.56,18.78,0,11.04,4.14,18.66,13.8,18.66,2.7,0,5.28-.54,7.68-1.74v-9.9c0-1.74-.54-2.7-1.62-3-.72-.18-2.64-.24-4.14-.36v-2.46h15.72v2.46c-.72.06-1.44.12-2.1.36-1.2.42-1.62,1.2-1.62,3v11.22c-2.94,1.86-8.7,3.54-14.52,3.42-12.36-.24-20.28-8.28-20.28-21.06Z"/>
        <path class="cls-3" d="M107.74,106.42c-1.92,2.82-5.4,4.56-8.64,4.56-4.08,0-7.44-2.64-7.44-7.14,0-4.08,2.64-6.84,8.7-8.34l7.38-1.8v-1.38c0-5.22-1.44-6.9-6.24-6.9-2.64,0-6.36.54-9.06,1.14v-2.76c3.48-1.8,8.22-2.94,12.06-2.94,5.34,0,8.7,2.58,8.7,9.84v13.98c0,3,1.56,3.78,4.14,3.78.3,0,.6,0,.96-.06v1.68c-1.44.6-2.64.96-4.56.96-4.44,0-5.94-1.86-6-4.62ZM102.1,106.6c1.98,0,4.26-.72,5.64-1.5v-8.58l-4.02,1.02c-4.44,1.14-6.48,2.22-6.48,4.74s1.38,4.32,4.86,4.32Z"/>
        <path class="cls-3" d="M117.61,104.88l15.84-24.3h-7.2c-4.14,0-5.28,2.58-6.54,5.88l-1.98-.3,1.38-8.58h20.82l1.02,1.68-15.84,24.18h7.32c3.36,0,6.6-2.7,7.32-6.6l1.8.24-1.32,9.36h-21.72l-.9-1.56Z"/>
        <path class="cls-3" d="M145.61,108.46c1.2-.36,1.62-1.26,1.62-3v-18.36c0-1.86-.36-2.46-2.16-2.46-.72,0-2.1.12-2.64.18v-2.1c1.74-.6,5.28-1.38,7.2-1.38,2.34,0,3.06,1.2,3.06,3.6v20.52c0,1.8.48,2.64,1.62,3,.54.18,1.26.24,2.64.36v2.22h-13.98v-2.22c.84-.06,1.98-.12,2.64-.36ZM145.97,72.28c0-2.58,1.86-3.84,3.84-3.84s3.84,1.26,3.84,3.84-1.86,3.84-3.84,3.84-3.84-1.26-3.84-3.84Z"/>
        <path class="cls-3" d="M178.07,103.9c1.2-.36,1.62-1.26,1.62-3v-12.9c0-4.44-1.2-6.6-6-6.6-2.22,0-3.96.48-6.48,1.32v18.18c0,1.8.48,2.64,1.62,3,.54.18,1.26.24,2.64.36v2.22h-13.98v-2.22c.84-.06,1.98-.12,2.64-.36,1.2-.36,1.62-1.26,1.62-3v-18.36c0-1.86-.36-2.46-2.16-2.46-.72,0-2.1.12-2.64.18v-2.1c1.74-.6,5.28-1.38,7.2-1.38,2.34,0,3.06,1.2,3.06,3.6v.78c3-2.64,6.3-4.38,10.14-4.38,4.86,0,7.8,2.64,7.8,9.78v14.34c0,1.8.48,2.64,1.62,3,.54.18,1.26.24,2.64.36v2.22h-13.98v-2.22c.84-.06,1.98-.12,2.64-.36Z"/>
        <path class="cls-3" d="M188.93,113.79c0-3.72,2.94-5.82,6.54-7.44-2.58-.96-3.3-2.76-3.3-4.38,0-2.16,1.92-4.08,4.02-5.52-3.3-1.32-5.58-3.84-5.58-7.62,0-5.58,4.92-9.9,11.64-9.9,3.36,0,6.6,1.08,8.76,3.12,2.7-1.26,2.82-4.5,5.4-4.5,1.5,0,2.64.84,2.64,2.34,0,2.58-4.2,3.42-6.84,3.6.9,1.26,1.44,2.82,1.44,4.62,0,5.94-5.64,9.42-11.34,9.42-1.5,0-2.94-.18-4.26-.48-.72.96-1.14,1.86-1.2,2.7,0,1.32,1.02,2.28,3.36,2.28h4.62c7.44,0,12.36,2.16,12.36,7.32,0,5.88-6.42,12.84-16.62,12.84-7.74,0-11.64-4.08-11.64-8.4ZM202.31,118.89c5.22,0,9.36-2.4,9.36-6.96,0-3-1.86-4.98-7.2-4.98h-4.8c-.84,0-1.62-.06-2.34-.18-2.34,1.8-3.06,3.84-3.06,5.82,0,3.78,2.64,6.3,8.04,6.3ZM207.59,88.59c0-4.5-2.88-6.78-5.82-6.78-3.18,0-5.4,2.64-5.4,6.42s2.4,6.42,5.88,6.42c3.3,0,5.34-2.34,5.34-6.06Z"/>
      </g>
    </g>
    <g>
      <path class="cls-2" d="M229.99,93.9c4.12-3.9,6.06-9.04,6.06-14.01,0-10.84-8.63-19.34-19.64-19.34-3.05,0-5.87.63-8.44,1.88-1.86-.33-3.77-.5-5.72-.5-3.86,0-7.52.69-10.86,1.94-4.17-2.77-9.11-4.09-14.04-4.09-.33,0-.66.02-.98.03-.25-4.19-2.02-8.14-5-11.08v-27.87c0-11.94-8.44-20.6-20.06-20.6-4.78,0-10.42,1.51-12.74,2.31-6.86,2.36-11.46,8.82-11.46,16.07v2.08s-.09.06-.13.09c-1.75-.46-3.6-.73-5.56-.73-3.41,0-7.25.76-10.01,1.49-2.4-.97-5.06-1.49-7.93-1.49-1.04,0-2.12.07-3.2.19-5.21-4.53-12.03-7.21-19.71-7.21-1.25,0-2.48.08-3.68.22-2.87-7.6-9.83-12.57-18.63-12.57-4.78,0-10.42,1.51-12.74,2.31-6.86,2.36-11.46,8.82-11.46,16.07v.69C14.52,21.72.25,37.78.25,58.65s15.98,38.31,37.19,38.36c3.53,17.2,17.37,28.8,36.04,29.17.31,0,.63,0,.94,0,4.04,0,8.2-.55,12.09-1.55,3.66,2.13,7.95,3.35,12.59,3.35,2.42,0,4.81-.33,7.12-.97,2.32.67,4.84,1.03,7.52,1.03,5.01,0,8.56-1.21,11.1-2.27,1.44-.6,2.77-1.4,3.96-2.33h2.57c3.04,2.84,7.11,4.6,11.6,4.6h13.98c4.47,0,8.53-1.74,11.57-4.57h2.95c.67,0,1.33-.04,1.98-.11.16.02.33.03.49.04,1.58,3.62,4.04,6.87,7.26,9.46,5.15,4.14,11.85,6.33,19.37,6.33,18.54,0,33.62-13.39,33.62-29.84,0-5.17-1.64-10-4.59-13.94.15-.5.28-1,.4-1.51Z"/>
      <g id="offset-2" data-name="offset">
        <path class="cls-5" d="M37.53,97.01C16.28,97.01.25,80.52.25,58.65S16.51,19.57,38.07,19.57c7.52,0,15.07,1.95,21.24,5.5,5.28,3.03,8.54,8.66,8.54,14.74v10.74c0,2.9-.72,5.62-2,8.01,1.28,2.39,2,5.11,2,8.01v9.18c0,5.1-2.29,9.93-6.24,13.16-6.29,5.15-15.07,8.1-24.08,8.1Z"/>
        <path class="cls-5" d="M51.59,80.24c-9.39,0-17-7.61-17-17v-2.22c0-4.3,1.6-8.25,4.26-11.26v-16.78c-3.05-3.16-4.8-7.38-4.8-11.81v-2.1c0-7.25,4.6-13.71,11.46-16.07,2.32-.8,7.96-2.31,12.74-2.31,11.62,0,20.06,8.66,20.06,20.6v28.51c2.65,3,4.26,6.94,4.26,11.21v2.22c0,9.39-7.61,17-17,17h-13.98Z"/>
        <path class="cls-5" d="M78.59,77.65c-17.11,0-30.02-13.45-30.02-31.28s14.06-33.32,32-33.32,30.08,13.32,30.08,30.98c0,18.85-14.08,33.62-32.06,33.62Z"/>
        <path class="cls-5" d="M108.88,84.61c-12.34,0-24.8-8.28-24.8-26.78v-5.46c-3.06-3.16-4.8-7.39-4.8-11.82v-2.1c0-7.25,4.6-13.7,11.45-16.07,2.31-.8,7.96-2.31,12.75-2.31,2.86,0,5.53.53,7.93,1.49,2.77-.73,6.6-1.49,10.01-1.49,11.62,0,20.06,8.66,20.06,20.6v12.03c3.07,3.04,4.87,7.14,5.03,11.47l.06,1.68c.26,7.08-3.91,13.58-10.46,16.31-2.53,1.05-6.08,2.27-11.09,2.27-2.82,0-5.37-.37-7.67-1.04-2.74.81-5.57,1.22-8.47,1.22Z"/>
        <path class="cls-5" d="M139.97,80.69c-16.09,0-28.22-13.58-28.22-31.58,0-12.37,6.01-22.74,15.36-28.4v-2.08c0-7.25,4.6-13.71,11.46-16.07,2.32-.8,7.96-2.31,12.74-2.31,11.62,0,20.06,8.66,20.06,20.6v27.87c3.07,3.04,4.88,7.14,5.03,11.48l.06,1.68c.25,7.08-3.91,13.57-10.45,16.3-2.53,1.05-6.08,2.27-11.1,2.27-2.64,0-5.02-.32-7.16-.88-2.92.85-5.58,1.12-7.78,1.12Z"/>
        <path class="cls-5" d="M74.42,126.18c-.31,0-.63,0-.94,0-21.73-.42-36.93-16.07-36.93-38.06s16.52-39.38,38.42-39.38c7.78,0,15.98,2.08,21.95,5.56,5.22,3.05,8.43,8.64,8.43,14.68v9.12c2.33,2.91,3.72,6.6,3.72,10.62v2.46c0,4-1.39,7.7-3.72,10.61v3.96c0,5.83-2.99,11.25-7.91,14.37-5.91,3.74-14.73,6.06-23.02,6.06Z"/>
        <path class="cls-5" d="M113.74,128.04c-2.68,0-5.2-.36-7.52-1.03-2.31.63-4.71.97-7.12.97-13.7,0-24.44-10.6-24.44-24.14,0-1.99.29-6,2.27-10.31-.97-2.16-1.49-4.53-1.49-6.97v-2.76c0-6.36,3.54-12.18,9.19-15.1,5.86-3.03,13.29-4.84,19.87-4.84,15.37,0,25.7,10.79,25.7,26.84v5.56c3.25,3.18,5.1,7.56,5.1,12.14v1.68c0,6.86-4.13,13.05-10.46,15.69-2.53,1.05-6.08,2.27-11.1,2.27Z"/>
        <path class="cls-5" d="M118.51,123.44c-6.08,0-11.69-3.24-14.73-8.51l-.9-1.56c-3.2-5.54-3.01-12.42.48-17.78l.11-.17c-2.29-3.53-3.21-7.79-2.53-11.97l1.38-8.58c1.33-8.24,8.44-14.3,16.78-14.3h20.82c5.94,0,11.45,3.1,14.53,8.17l1.02,1.68c3.22,5.3,3.29,11.91.24,17.25,2.29,3.46,3.25,7.64,2.67,11.77l-1.32,9.36c-1.18,8.39-8.36,14.62-16.83,14.62h-21.72Z"/>
        <path class="cls-5" d="M142.97,128.04c-9.39,0-17-7.61-17-17v-2.22c0-4.3,1.6-8.25,4.26-11.26v-.93c-3.06-3.16-4.8-7.39-4.8-11.82v-2.1c0-3.85,1.3-7.48,3.54-10.38v-.06c0-11.69,9.15-20.84,20.84-20.84s20.84,9.15,20.84,20.84c0,2.77-.51,5.4-1.45,7.79.32,1.55.49,3.17.49,4.87v12.67c2.65,3,4.26,6.94,4.26,11.21v2.22c0,9.39-7.61,17-17,17h-13.98Z"/>
        <path class="cls-5" d="M175.43,123.48c-.67,0-1.33-.04-1.98-.11-.65.08-1.31.11-1.98.11h-13.98c-9.39,0-17-7.61-17-17v-2.22c0-4.3,1.6-8.25,4.26-11.26v-.93c-3.06-3.16-4.8-7.39-4.8-11.82v-2.1c0-7.25,4.6-13.7,11.45-16.07,2.31-.8,7.96-2.31,12.75-2.31,2.15,0,4.2.3,6.1.86,2.31-.57,4.68-.86,7.1-.86,12.34,0,24.8,8.28,24.8,26.78v6.49c2.65,3,4.26,6.94,4.26,11.21v2.22c0,9.39-7.61,17-17,17h-13.98Z"/>
        <path class="cls-5" d="M200.57,139.19c-7.52,0-14.21-2.19-19.37-6.33-5.89-4.73-9.27-11.68-9.27-19.07,0-4.76,1.29-8.67,3.24-11.86,0-1,.08-2.2.32-3.54-1.23-2.95-1.88-6.18-1.88-9.55,0-15.08,12.58-26.9,28.64-26.9,1.95,0,3.87.17,5.72.5,2.57-1.25,5.39-1.88,8.44-1.88,11.01,0,19.64,8.5,19.64,19.34,0,4.98-1.94,10.11-6.06,14.01-.12.51-.25,1.01-.4,1.51,2.96,3.94,4.59,8.76,4.59,13.94,0,16.45-15.08,29.84-33.62,29.84Z"/>
      </g>
      <g id="text-2" data-name="text">
        <path class="cls-1" d="M17.25,58.65c0-12.84,8.82-22.08,20.82-22.08,4.56,0,9.12,1.14,12.78,3.24v10.74h-2.1c-1.74-6.24-4.5-10.98-11.04-10.98-10.08,0-13.38,8.58-13.38,18.84,0,10.98,3.72,18.6,13.26,18.6,6.54,0,9.72-5.1,11.16-10.44h2.1v9.18c-3.3,2.7-8.34,4.26-13.32,4.26-12.36,0-20.28-9.3-20.28-21.36Z"/>
        <path class="cls-1" d="M54.23,60.66c1.2-.36,1.62-1.26,1.62-3V23.46c0-1.86-.36-2.46-2.16-2.46-.72,0-2.1.12-2.64.18v-2.1c1.74-.6,5.28-1.38,7.2-1.38,2.34,0,3.06,1.2,3.06,3.6v36.36c0,1.8.48,2.64,1.62,3,.54.18,1.26.24,2.64.36v2.22h-13.98v-2.22c.84-.06,1.98-.12,2.64-.36Z"/>
        <path class="cls-1" d="M65.57,46.37c0-9.84,6.78-16.32,15-16.32s13.08,5.76,13.08,13.98c0,8.64-5.88,16.62-15.06,16.62-7.74,0-13.02-5.64-13.02-14.28ZM87.53,45.95c0-7.32-2.4-12.42-8.52-12.42-5.64,0-7.32,4.38-7.32,10.68,0,7.26,2.28,12.96,8.4,12.96,5.1,0,7.44-4.08,7.44-11.22Z"/>
        <path class="cls-1" d="M101.08,57.83v-15c0-1.86-.36-2.46-2.16-2.46-.72,0-2.1.12-2.64.18v-2.1c1.74-.6,5.28-1.38,7.2-1.38,2.34,0,3.06,1.2,3.06,3.6v15.72c0,4.44,1.2,6.6,6,6.6,2.22,0,3.96-.48,6.48-1.32v-18.84c0-1.86-.36-2.46-2.16-2.46-.72,0-2.1.12-2.64.18v-2.1c1.74-.6,5.28-1.38,7.2-1.38,2.34,0,3.06,1.2,3.06,3.6v20.4c0,3.36,1.92,3.9,5.04,3.72l.06,1.68c-1.44.6-2.64.96-4.56.96-4.2,0-5.76-1.68-6-4.2-2.94,2.64-6.24,4.38-10.14,4.38-4.86,0-7.8-2.64-7.8-9.78Z"/>
        <path class="cls-1" d="M128.75,49.11c0-9.72,6.3-16.02,15.36-16.02,1.62,0,3.24.18,4.8.54v-10.62c0-1.86-.36-2.46-2.16-2.46-.72,0-2.1.12-2.64.18v-2.1c1.74-.6,5.28-1.38,7.2-1.38,2.34,0,3.06,1.2,3.06,3.6v36.24c0,3.36,1.92,3.9,5.04,3.72l.06,1.68c-1.44.6-2.64.96-4.56.96-4.02,0-5.58-1.5-5.94-3.84-2.94,2.76-6,4.08-9,4.08-6.18,0-11.22-5.64-11.22-14.58ZM143.15,58.95c1.98,0,3.48-.36,5.76-1.5v-19.02c-1.86-.96-4.26-1.86-7.02-1.86-5.94,0-7.98,4.32-7.98,10.68,0,7.44,2.52,11.7,9.24,11.7Z"/>
        <path class="cls-1" d="M53.55,88.12c0-13.26,9.18-22.38,21.42-22.38,4.38,0,9.78,1.14,13.38,3.24v10.74h-2.1c-1.8-6.24-4.98-10.98-12.06-10.98-9.6,0-13.56,8.58-13.56,18.78,0,11.04,4.14,18.66,13.8,18.66,2.7,0,5.28-.54,7.68-1.74v-9.9c0-1.74-.54-2.7-1.62-3-.72-.18-2.64-.24-4.14-.36v-2.46h15.72v2.46c-.72.06-1.44.12-2.1.36-1.2.42-1.62,1.2-1.62,3v11.22c-2.94,1.86-8.7,3.54-14.52,3.42-12.36-.24-20.28-8.28-20.28-21.06Z"/>
        <path class="cls-1" d="M107.74,106.42c-1.92,2.82-5.4,4.56-8.64,4.56-4.08,0-7.44-2.64-7.44-7.14,0-4.08,2.64-6.84,8.7-8.34l7.38-1.8v-1.38c0-5.22-1.44-6.9-6.24-6.9-2.64,0-6.36.54-9.06,1.14v-2.76c3.48-1.8,8.22-2.94,12.06-2.94,5.34,0,8.7,2.58,8.7,9.84v13.98c0,3,1.56,3.78,4.14,3.78.3,0,.6,0,.96-.06v1.68c-1.44.6-2.64.96-4.56.96-4.44,0-5.94-1.86-6-4.62ZM102.1,106.6c1.98,0,4.26-.72,5.64-1.5v-8.58l-4.02,1.02c-4.44,1.14-6.48,2.22-6.48,4.74s1.38,4.32,4.86,4.32Z"/>
        <path class="cls-1" d="M117.61,104.88l15.84-24.3h-7.2c-4.14,0-5.28,2.58-6.54,5.88l-1.98-.3,1.38-8.58h20.82l1.02,1.68-15.84,24.18h7.32c3.36,0,6.6-2.7,7.32-6.6l1.8.24-1.32,9.36h-21.72l-.9-1.56Z"/>
        <path class="cls-1" d="M145.61,108.46c1.2-.36,1.62-1.26,1.62-3v-18.36c0-1.86-.36-2.46-2.16-2.46-.72,0-2.1.12-2.64.18v-2.1c1.74-.6,5.28-1.38,7.2-1.38,2.34,0,3.06,1.2,3.06,3.6v20.52c0,1.8.48,2.64,1.62,3,.54.18,1.26.24,2.64.36v2.22h-13.98v-2.22c.84-.06,1.98-.12,2.64-.36ZM145.97,72.28c0-2.58,1.86-3.84,3.84-3.84s3.84,1.26,3.84,3.84-1.86,3.84-3.84,3.84-3.84-1.26-3.84-3.84Z"/>
        <path class="cls-1" d="M178.07,103.9c1.2-.36,1.62-1.26,1.62-3v-12.9c0-4.44-1.2-6.6-6-6.6-2.22,0-3.96.48-6.48,1.32v18.18c0,1.8.48,2.64,1.62,3,.54.18,1.26.24,2.64.36v2.22h-13.98v-2.22c.84-.06,1.98-.12,2.64-.36,1.2-.36,1.62-1.26,1.62-3v-18.36c0-1.86-.36-2.46-2.16-2.46-.72,0-2.1.12-2.64.18v-2.1c1.74-.6,5.28-1.38,7.2-1.38,2.34,0,3.06,1.2,3.06,3.6v.78c3-2.64,6.3-4.38,10.14-4.38,4.86,0,7.8,2.64,7.8,9.78v14.34c0,1.8.48,2.64,1.62,3,.54.18,1.26.24,2.64.36v2.22h-13.98v-2.22c.84-.06,1.98-.12,2.64-.36Z"/>
        <path class="cls-1" d="M188.93,113.79c0-3.72,2.94-5.82,6.54-7.44-2.58-.96-3.3-2.76-3.3-4.38,0-2.16,1.92-4.08,4.02-5.52-3.3-1.32-5.58-3.84-5.58-7.62,0-5.58,4.92-9.9,11.64-9.9,3.36,0,6.6,1.08,8.76,3.12,2.7-1.26,2.82-4.5,5.4-4.5,1.5,0,2.64.84,2.64,2.34,0,2.58-4.2,3.42-6.84,3.6.9,1.26,1.44,2.82,1.44,4.62,0,5.94-5.64,9.42-11.34,9.42-1.5,0-2.94-.18-4.26-.48-.72.96-1.14,1.86-1.2,2.7,0,1.32,1.02,2.28,3.36,2.28h4.62c7.44,0,12.36,2.16,12.36,7.32,0,5.88-6.42,12.84-16.62,12.84-7.74,0-11.64-4.08-11.64-8.4ZM202.31,118.89c5.22,0,9.36-2.4,9.36-6.96,0-3-1.86-4.98-7.2-4.98h-4.8c-.84,0-1.62-.06-2.34-.18-2.34,1.8-3.06,3.84-3.06,5.82,0,3.78,2.64,6.3,8.04,6.3ZM207.59,88.59c0-4.5-2.88-6.78-5.82-6.78-3.18,0-5.4,2.64-5.4,6.42s2.4,6.42,5.88,6.42c3.3,0,5.34-2.34,5.34-6.06Z"/>
      </g>
    </g>
  </g>
</svg>