<?xml version="1.0" encoding="UTF-8"?>
<svg id="Layer_2" data-name="Layer 2" xmlns="http://www.w3.org/2000/svg" viewBox="0 0 22.75 22.83">
  <defs>
    <style>
      .cls-1 {
        fill: #fff;
      }

      .cls-1, .cls-2, .cls-3 {
        stroke: #3e00ff;
        stroke-miterlimit: 10;
      }

      .cls-2 {
        stroke-width: .25px;
      }

      .cls-2, .cls-3 {
        fill: none;
      }

      .cls-4 {
        fill: #3e00ff;
      }
    </style>
  </defs>
  <g id="Layer_1-2" data-name="Layer 1">
    <path class="cls-1" d="M5.86,20.98l-4.73,1.34c-.37.1-.71-.23-.61-.6l1.26-4.81c.02-.09.07-.17.13-.23L17.64.94c.58-.58,1.53-.58,2.11,0l2.06,2.06c.58.58.58,1.53,0,2.11l-15.74,15.74c-.06.06-.14.1-.22.13Z"/>
    <rect class="cls-4" x="8.09" y="3.57" width="4.41" height="17.77" transform="translate(11.82 -3.63) rotate(45)"/>
    <polygon class="cls-4" points="1.32 21.5 1.85 19.41 3.37 20.93 1.32 21.5"/>
    <line class="cls-3" x1="15.02" y1="3.56" x2="19.19" y2="7.73"/>
    <line class="cls-2" x1="15.87" y1="2.7" x2="20.04" y2="6.88"/>
  </g>
</svg>